<?xml version="1.0" encoding="UTF-8" standalone="no"?>
<!-- Created with Inkscape (http://www.inkscape.org/) -->

<svg
   width="210mm"
   height="297mm"
   viewBox="0 0 210 297"
   version="1.1"
   id="svg5"
   xml:space="preserve"
   inkscape:version="1.2.1 (9c6d41e410, 2022-07-14)"
   sodipodi:docname="referi_logo.svg"
   inkscape:export-filename="referi_logo.png"
   inkscape:export-xdpi="96"
   inkscape:export-ydpi="96"
   xmlns:inkscape="http://www.inkscape.org/namespaces/inkscape"
   xmlns:sodipodi="http://sodipodi.sourceforge.net/DTD/sodipodi-0.dtd"
   xmlns="http://www.w3.org/2000/svg"
   xmlns:svg="http://www.w3.org/2000/svg"><sodipodi:namedview
     id="namedview7"
     pagecolor="#ffffff"
     bordercolor="#000000"
     borderopacity="0.25"
     inkscape:showpageshadow="2"
     inkscape:pageopacity="0.0"
     inkscape:pagecheckerboard="0"
     inkscape:deskcolor="#d1d1d1"
     inkscape:document-units="mm"
     showgrid="false"
     inkscape:zoom="0.5"
     inkscape:cx="366"
     inkscape:cy="642"
     inkscape:window-width="1366"
     inkscape:window-height="699"
     inkscape:window-x="0"
     inkscape:window-y="0"
     inkscape:window-maximized="1"
     inkscape:current-layer="g1226" /><defs
     id="defs2"><inkscape:perspective
       sodipodi:type="inkscape:persp3d"
       inkscape:vp_x="0 : 148.5 : 1"
       inkscape:vp_y="0 : 1000 : 0"
       inkscape:vp_z="210 : 148.5 : 1"
       inkscape:persp3d-origin="105 : 99 : 1"
       id="perspective1176" /><clipPath
       clipPathUnits="userSpaceOnUse"
       id="clipPath412"><g
         inkscape:label="Clip"
         id="use414"
         style="fill:#ff9900;fill-opacity:1" /></clipPath><clipPath
       clipPathUnits="userSpaceOnUse"
       id="clipPath421"><g
         inkscape:label="Clip"
         id="use423"><g
           inkscape:label="Clip"
           id="use425"><circle
             style="opacity:0.32;fill:#000000;stroke-width:0.264583"
             id="circle429"
             cx="90.402657"
             cy="185.95357"
             r="1.9784079" /></g></g></clipPath></defs><g
     inkscape:label="Capa 1"
     inkscape:groupmode="layer"
     id="layer1"
     style="display:inline"><g
       id="g1226"
       transform="matrix(15.259058,0,0,15.259058,-1286.0617,-2720.1392)"
       style="opacity:1;fill:#ffffff;fill-opacity:1"><path
         id="path387"
         style="display:inline;opacity:1;fill:#ff9900;fill-opacity:1;stroke-width:0.326575"
         d="m 90.364187,182.92927 a 2.9974382,2.9974382 0 0 0 -2.997233,2.99775 2.9974382,2.9974382 0 0 0 2.997233,2.99724 2.9974382,2.9974382 0 0 0 2.997233,-2.99724 2.9974382,2.9974382 0 0 0 -2.997233,-2.99775 z m -0.0124,0.89556 a 2.109755,2.109755 0 0 1 2.109949,2.10994 2.109755,2.109755 0 0 1 -2.109949,2.10944 2.109755,2.109755 0 0 1 -2.109949,-2.10944 2.109755,2.109755 0 0 1 2.109949,-2.10994 z"
         transform="translate(0.06440102,0.01562405)" /><path
         style="opacity:1;fill:#ff9900;fill-opacity:1;stroke-width:0.264583"
         d="m 87.904949,180.89301 -0.276596,-1.62505 0.783537,-0.27848 0.804564,1.44375 c 0.452376,-0.0529 0.927047,-0.0819 1.468128,-0.0394 l 0.644967,-1.54184 0.836662,0.20091 -0.03777,1.58224 c 0.354389,0.10025 0.83165,0.35018 1.359829,0.66213 l 1.324576,-0.93212 0.646956,0.55223 -0.877099,1.35155 c 0.250502,0.28807 0.510534,0.6392 0.810877,1.25705 l 1.59554,-0.17715 0.309343,0.77823 -1.40582,0.80607 c 0.207914,0.97741 0.0947,1.10177 0.07976,1.44456 l 1.502072,0.65905 -0.09413,0.77524 -1.649962,-0.0432 c -0.223623,0.49005 -0.427794,0.99226 -0.709249,1.31934 l 1.008699,1.37166 -0.535705,0.58258 -1.427151,-0.81663 c -0.381468,0.31797 -0.72287,0.53255 -1.138067,0.69426 l 2.104481,4.40003 c 0.06599,0.12483 0.106295,0.24298 -0.02757,0.31586 l -3.41852,1.57037 c -0.09298,0.008 -0.183807,0.10763 -0.280887,-0.0591 l -1.951712,-3.54858 0.02207,-1.59037 2.233912,4.38702 c 0.0352,0.0569 0.09142,0.0798 0.174312,0.0598 l 2.272528,-1.14903 c 0.05085,-0.0436 0.05167,-0.10693 0.0076,-0.1881 l -1.891223,-3.73268 c -0.03347,-0.0764 -0.08597,-0.11118 -0.162375,-0.0935 -0.902305,0.27277 -1.802046,0.29549 -2.700179,0.16141 v 5.42359 c -0.03521,0.1728 -0.117206,0.27305 -0.267459,0.26745 h -3.938265 c -0.154002,0.006 -0.230988,-0.0724 -0.232373,-0.23237 v -11.84905 c 0.23552,-1.10145 0.508775,-2.20473 1.980281,-3.41758 l 0.486713,0.86627 c -0.854064,0.70193 -1.328527,1.70701 -1.626833,2.90016 v 10.79193 c 0.01133,0.0291 -0.02088,0.0827 0.04635,0.0803 h 2.594002 c 0.05066,0.011 0.06529,-0.0155 0.06139,-0.0614 v -5.48811 c 0.05147,-0.24285 0.186586,-0.36896 0.401348,-0.38392 1.289863,0.35004 2.500731,0.31304 3.657011,-0.25872 5.952895,-3.95854 0.07085,-11.56349 -5.133336,-7.58038 l -0.486914,-0.86619 c 0.409987,-0.39124 0.707891,-0.5174 1.051687,-0.75209 z"
         id="path280"
         sodipodi:nodetypes="cccccccccccccccccccccccccccccccccccccccccccccccccccccccc" /></g></g></svg>
